<svg id="Layer_1" data-name="Layer 1" xmlns="http://www.w3.org/2000/svg" viewBox="0 0 50 50"><defs><style>.cls-1{fill:#ffe8d0;}.cls-2{fill:#fac7b9;}.cls-3{fill:#553516;}.cls-4{fill:#543617;}</style></defs><title>Untitled-1</title><path class="cls-1" d="M41.17,25.8c-.15,2.55-.09,4.73-.09,4.73-4-3.11-4.4-9.08-4.4-9.08-.58,2.79.65,8.15.65,8.15C33,26.3,31.81,19.44,31.81,19.44c-1.69,4.93,1.49,10.76,1.49,10.76a12.58,12.58,0,0,1-6.64-8.75c-.62,4,1.77,9,1.77,9-5.26-2.4-6.28-10.37-6.28-10.37a9.47,9.47,0,0,0,1,9.52c-6.16-3-6.9-10.18-6.92-13.29-.64,9.25-8.63,13.35-8.63,13.35A19.53,19.53,0,0,0,8.73,25.8,2.45,2.45,0,0,0,6.6,28.23v3.48A2.45,2.45,0,0,0,9,34.16h.21c1,9.27,7.66,13.34,15.72,13.34h0c8.06,0,14.71-4.07,15.72-13.34h.21a2.45,2.45,0,0,0,2.45-2.45V28.23A2.45,2.45,0,0,0,41.17,25.8Z"/><path class="cls-2" d="M25,41.47a16.57,16.57,0,0,1-7.51-1.93.43.43,0,1,1,.42-.74A16,16,0,0,0,25,40.62a15.94,15.94,0,0,0,7.08-1.82.43.43,0,1,1,.42.74A16.57,16.57,0,0,1,25,41.47Z"/><ellipse class="cls-3" cx="15.77" cy="32.95" rx="1.17" ry="1.57"/><ellipse class="cls-3" cx="34.15" cy="32.95" rx="1.17" ry="1.57"/><path class="cls-4" d="M12.8,29a.24.24,0,0,1-.16-.42,5.17,5.17,0,0,1,3.71-1.28.24.24,0,0,1-.06.48A4.72,4.72,0,0,0,13,28.92.24.24,0,0,1,12.8,29Z"/><path class="cls-4" d="M37.13,29a.24.24,0,0,1-.16-.06,4.72,4.72,0,0,0-3.32-1.16.24.24,0,0,1-.06-.48,5.17,5.17,0,0,1,3.71,1.28.24.24,0,0,1-.16.42Z"/><path class="cls-3" d="M9,34.16a2.44,2.44,0,0,1-1.35-.4v.38a2.86,2.86,0,0,1-1,2.37s.69.28,1.66-.82c0,0,.32,1.69-.52,2.34a2.59,2.59,0,0,0,1.73-1.41s.54,1.54-.17,2.31a2.57,2.57,0,0,0,1-.22,17.52,17.52,0,0,1-1.09-4.55Z"/><path class="cls-3" d="M43.4,36.51a2.86,2.86,0,0,1-1-2.37v-.46a2.44,2.44,0,0,1-1.46.49h-.21a17.6,17.6,0,0,1-1,4.41,1.89,1.89,0,0,0,1,.36c-.71-.78-.17-2.31-.17-2.31A2.59,2.59,0,0,0,42.26,38c-.84-.64-.52-2.34-.52-2.34C42.71,36.79,43.4,36.51,43.4,36.51Z"/><path class="cls-4" d="M28.41,4.23A1.93,1.93,0,0,0,28.19,3a2.24,2.24,0,0,1-.42,1,2.13,2.13,0,0,0-.94-1.46,2.1,2.1,0,0,1,0,1.53c-.49,0-1-.06-1.49-.06h-.55C15.31,4,7.64,11.07,7.64,19.82v6.49l0-.09a2.43,2.43,0,0,1,1.06-.41v0l-.09.46v0l-.1.48a18.64,18.64,0,0,1-.88,2.85s8-4.1,8.63-13.35c0,3.11.76,10.33,6.92,13.29a9.47,9.47,0,0,1-1-9.52s1,8,6.28,10.37c0,0-2.39-5-1.77-9a12.58,12.58,0,0,0,6.64,8.75s-3.18-5.83-1.49-10.76c0,0,1.17,6.86,5.51,10.16,0,0-1.23-5.37-.65-8.15,0,0,.44,6,4.4,9.08,0,0,0-1.79.05-4,0-.21,0-.43,0-.66V25.8a2.4,2.4,0,0,1,.56.13h0l.08,0,.23.11a3.42,3.42,0,0,1,.4.26v-6.5C42.44,12,36.39,5.58,28.41,4.23Z"/><ellipse class="cls-2" cx="34.82" cy="35.78" rx="2.05" ry="0.54"/><ellipse class="cls-2" cx="15.04" cy="35.78" rx="2.05" ry="0.54"/></svg>